<svg width="39" height="36" viewBox="0 0 39 36" fill="none" xmlns="http://www.w3.org/2000/svg">
<path d="M8.2058e-08 2.0005V33.9995C-0.000103525 34.3553 0.097905 34.7048 0.283913 35.0117C0.469922 35.3187 0.737193 35.5721 1.05815 35.7457C1.37911 35.9194 1.74213 36.007 2.10976 35.9996C2.47739 35.9921 2.83632 35.8899 3.1495 35.7034L30.0154 19.7039C30.3162 19.525 30.5647 19.2744 30.7371 18.9761C30.9095 18.6778 31 18.3418 31 18C31 17.6582 30.9095 17.3222 30.7371 17.0239C30.5647 16.7256 30.3162 16.475 30.0154 16.2961L3.1495 0.296554C2.83632 0.11009 2.47739 0.007868 2.10976 0.000436299C1.74213 -0.0069954 1.37911 0.0806319 1.05815 0.254277C0.737193 0.427923 0.469922 0.681297 0.283913 0.988259C0.097905 1.29522 -0.000103525 1.64465 8.2058e-08 2.0005Z" fill="white" fill-opacity="0.77"/>
<path d="M30 7.28571C30 4.91878 32.0147 3 34.5 3C36.9853 3 39 4.91878 39 7.28571V28.7143C39 31.0812 36.9853 33 34.5 33C32.0147 33 30 31.0812 30 28.7143V7.28571Z" fill="white" fill-opacity="0.77"/>
</svg>
