<svg width="40" height="46" viewBox="0 0 40 46" fill="none" xmlns="http://www.w3.org/2000/svg">
<path d="M11.3333 0H5.66667C4.16377 0 2.72243 0.597022 1.65973 1.65973C0.597022 2.72243 0 4.16377 0 5.66667V39.6667C0 41.1696 0.597022 42.6109 1.65973 43.6736C2.72243 44.7363 4.16377 45.3333 5.66667 45.3333H11.3333C12.8362 45.3333 14.2776 44.7363 15.3403 43.6736C16.403 42.6109 17 41.1696 17 39.6667V5.66667C17 4.16377 16.403 2.72243 15.3403 1.65973C14.2776 0.597022 12.8362 0 11.3333 0ZM34 0H28.3333C26.8304 0 25.3891 0.597022 24.3264 1.65973C23.2637 2.72243 22.6667 4.16377 22.6667 5.66667V39.6667C22.6667 41.1696 23.2637 42.6109 24.3264 43.6736C25.3891 44.7363 26.8304 45.3333 28.3333 45.3333H34C35.5029 45.3333 36.9442 44.7363 38.0069 43.6736C39.0696 42.6109 39.6667 41.1696 39.6667 39.6667V5.66667C39.6667 4.16377 39.0696 2.72243 38.0069 1.65973C36.9442 0.597022 35.5029 0 34 0Z" fill="white"/>
</svg>
