<svg width="39" height="47" viewBox="0 0 39 47" fill="none" xmlns="http://www.w3.org/2000/svg">
<path d="M1.03234e-07 2.61177V44.3882C-0.000130241 44.8528 0.123171 45.309 0.357181 45.7098C0.591192 46.1105 0.927436 46.4413 1.33122 46.668C1.73501 46.8947 2.19172 47.0091 2.65422 46.9994C3.11672 46.9897 3.56827 46.8563 3.96228 46.6128L37.7612 25.7246C38.1398 25.491 38.4524 25.1639 38.6693 24.7744C38.8861 24.385 39 23.9462 39 23.5C39 23.0538 38.8861 22.615 38.6693 22.2256C38.4524 21.8361 38.1398 21.509 37.7612 21.2754L3.96228 0.387168C3.56827 0.143728 3.11672 0.0102721 2.65422 0.000569612C2.19172 -0.00913289 1.73501 0.105269 1.33122 0.331973C0.927436 0.558677 0.591192 0.889471 0.357181 1.29023C0.123171 1.69098 -0.000130241 2.14718 1.03234e-07 2.61177Z" fill="white"/>
</svg>
