<svg width="39" height="36" viewBox="0 0 39 36" fill="none" xmlns="http://www.w3.org/2000/svg">
<path d="M39 2.0005V33.9995C39.0001 34.3553 38.9021 34.7048 38.7161 35.0117C38.5301 35.3187 38.2628 35.5721 37.9418 35.7457C37.6209 35.9194 37.2579 36.007 36.8902 35.9996C36.5226 35.9921 36.1637 35.8899 35.8505 35.7034L8.98465 19.7039C8.68375 19.525 8.43526 19.2744 8.26288 18.9761C8.09051 18.6778 8 18.3418 8 18C8 17.6582 8.09051 17.3222 8.26288 17.0239C8.43526 16.7256 8.68375 16.475 8.98465 16.2961L35.8505 0.296554C36.1637 0.11009 36.5226 0.007868 36.8902 0.000436299C37.2579 -0.0069954 37.6209 0.0806319 37.9418 0.254277C38.2628 0.427923 38.5301 0.681297 38.7161 0.988259C38.9021 1.29522 39.0001 1.64465 39 2.0005Z" fill="white" fill-opacity="0.77"/>
<path d="M9 7.28571C9 4.91878 6.98528 3 4.5 3C2.01472 3 0 4.91878 0 7.28571V28.7143C0 31.0812 2.01472 33 4.5 33C6.98528 33 9 31.0812 9 28.7143V7.28571Z" fill="white" fill-opacity="0.77"/>
</svg>
