<svg width="25" height="23" viewBox="0 0 25 23" fill="none" xmlns="http://www.w3.org/2000/svg">
<path d="M5.28971 2.14887C5.5034 1.90664 5.61974 1.58627 5.61421 1.25524C5.60868 0.924205 5.48172 0.608363 5.26006 0.374252C5.03841 0.140141 4.73938 0.00603974 4.42596 0.000199073C4.11255 -0.00564159 3.80922 0.117235 3.57989 0.342941L0.353804 3.75035C0.127252 3.98993 0 4.3147 0 4.65331C0 4.99192 0.127252 5.31669 0.353804 5.55627L3.57989 8.96368C3.69064 9.08922 3.8242 9.18992 3.9726 9.25975C4.121 9.32959 4.28119 9.36715 4.44363 9.37017C4.60607 9.3732 4.76742 9.34164 4.91806 9.27737C5.0687 9.21311 5.20554 9.11745 5.32042 8.99612C5.4353 8.87478 5.52586 8.73025 5.58671 8.57115C5.64755 8.41204 5.67743 8.24162 5.67457 8.07005C5.6717 7.89848 5.63615 7.72928 5.57002 7.57254C5.5039 7.4158 5.40857 7.27474 5.28971 7.15776L4.12832 5.93109H20.5652C20.8861 5.93109 21.1938 5.79647 21.4206 5.55684C21.6475 5.31721 21.775 4.9922 21.775 4.65331C21.775 4.31442 21.6475 3.98942 21.4206 3.74979C21.1938 3.51016 20.8861 3.37553 20.5652 3.37553H4.12832L5.28971 2.14887ZM19.7103 13.9726C19.4837 14.2122 19.3565 14.5369 19.3565 14.8755C19.3565 15.2141 19.4837 15.5389 19.7103 15.7785L20.8717 17.0052H4.4348C4.11394 17.0052 3.80623 17.1398 3.57935 17.3794C3.35248 17.619 3.22502 17.9441 3.22502 18.2829C3.22502 18.6218 3.35248 18.9468 3.57935 19.1865C3.80623 19.4261 4.11394 19.5607 4.4348 19.5607H20.8717L19.7103 20.7874C19.5914 20.9044 19.4961 21.0454 19.43 21.2022C19.3639 21.3589 19.3283 21.5281 19.3254 21.6997C19.3226 21.8713 19.3524 22.0417 19.4133 22.2008C19.4741 22.3599 19.5647 22.5044 19.6796 22.6257C19.7945 22.7471 19.9313 22.8427 20.0819 22.907C20.2326 22.9713 20.3939 23.0028 20.5564 22.9998C20.7188 22.9968 20.879 22.9592 21.0274 22.8894C21.1758 22.8195 21.3094 22.7189 21.4201 22.5933L24.6462 19.1859C24.8727 18.9463 25 18.6216 25 18.2829C25 17.9443 24.8727 17.6196 24.6462 17.38L21.4201 13.9726C21.1933 13.7333 20.8858 13.5989 20.5652 13.5989C20.2446 13.5989 19.9371 13.7333 19.7103 13.9726Z" fill="white" fill-opacity="0.57"/>
</svg>
