<svg width="31" height="23" viewBox="0 0 31 23" fill="none" xmlns="http://www.w3.org/2000/svg">
<path fill-rule="evenodd" clip-rule="evenodd" d="M18.2432 7.25704C18.5733 6.92029 19.1152 6.91355 19.4536 7.24198L26.4572 14.0384C26.7956 14.3668 26.8024 14.9061 26.4723 15.2428C26.1422 15.5796 25.6003 15.5863 25.2619 15.2579L18.2583 8.46146C17.9199 8.13303 17.9131 7.5938 18.2432 7.25704Z" fill="#AB9B9B"/>
<path fill-rule="evenodd" clip-rule="evenodd" d="M26.4723 7.25717C26.1422 6.92041 25.6003 6.91367 25.2619 7.2421L18.2583 14.0385C17.9199 14.367 17.9131 14.9062 18.2432 15.243C18.5733 15.5797 19.1152 15.5864 19.4537 15.258L26.4572 8.46159C26.7956 8.13315 26.8024 7.59392 26.4723 7.25717Z" fill="#AB9B9B"/>
<path d="M15.0208 0.115332C15.1531 0.192366 15.2633 0.304198 15.3399 0.439407C15.4165 0.574617 15.457 0.728359 15.4571 0.88493V22.1152C15.4571 22.2717 15.4168 22.4255 15.3403 22.5607C15.2638 22.6959 15.1539 22.8078 15.0217 22.885C14.8895 22.9622 14.7398 23.0018 14.5879 22.9999C14.436 22.998 14.2873 22.9546 14.1569 22.8742L5.77407 17.6922H2.57618C1.89293 17.6922 1.23767 17.4126 0.754545 16.915C0.271418 16.4173 0 15.7423 0 15.0385L0 7.95639C0.000455298 7.25286 0.272074 6.57832 0.755152 6.08102C1.23823 5.58372 1.89323 5.30437 2.57618 5.30437H5.77407L14.1552 0.125947C14.2857 0.0453702 14.4345 0.00192779 14.5866 6.26935e-05C14.7387 -0.0018024 14.8886 0.0379769 15.0208 0.115332Z" fill="white" fill-opacity="0.57"/>
</svg>
