<svg width="31" height="23" viewBox="0 0 31 23" fill="none" xmlns="http://www.w3.org/2000/svg">
<path d="M14.5767 0.115332C14.7051 0.192366 14.8119 0.304198 14.8863 0.439407C14.9607 0.574617 14.9999 0.728359 15 0.88493V22.1152C15 22.2717 14.9609 22.4255 14.8867 22.5607C14.8125 22.6959 14.7058 22.8078 14.5775 22.885C14.4493 22.9622 14.304 23.0018 14.1566 22.9999C14.0091 22.998 13.8648 22.9546 13.7383 22.8742L5.60333 17.6922H2.5C1.83696 17.6922 1.20107 17.4126 0.732233 16.915C0.263392 16.4173 0 15.7423 0 15.0385L0 7.95639C0.000441835 7.25286 0.264029 6.57832 0.732822 6.08102C1.20162 5.58372 1.83725 5.30437 2.5 5.30437H5.60333L13.7367 0.125947C13.8633 0.0453702 14.0077 0.00192779 14.1553 6.26935e-05C14.3029 -0.0018024 14.4483 0.0379769 14.5767 0.115332Z" fill="white" fill-opacity="0.57"/>
<path d="M18.0733 7.14189C18.1954 6.58928 18.7474 6.23228 19.2713 6.44652C20.2157 6.8328 21.0517 7.45599 21.6942 8.26316C22.5508 9.33921 23.0117 10.6769 22.9998 12.0522C22.9878 13.4276 22.5037 14.757 21.6285 15.818C20.972 16.6139 20.1253 17.2224 19.1743 17.5922C18.6468 17.7973 18.101 17.4307 17.9886 16.8761C17.8761 16.3214 18.2445 15.7919 18.7518 15.5409C19.2479 15.2955 19.6904 14.9468 20.0475 14.5139C20.6238 13.8153 20.9425 12.9399 20.9504 12.0344C20.9583 11.1288 20.6548 10.2481 20.0908 9.53957C19.7413 9.10055 19.3049 8.74418 18.8131 8.49013C18.3103 8.23038 17.9512 7.6945 18.0733 7.14189Z" fill="#AB9B9B"/>
<path d="M22.2585 4.72638C22.5293 4.17891 23.1974 3.94914 23.7074 4.28523C24.7444 4.96863 25.6317 5.86237 26.3092 6.91285C27.1872 8.27425 27.68 9.84805 27.7352 11.4671C27.7905 13.0861 27.4062 14.6898 26.6231 16.1079C26.0188 17.2022 25.1945 18.1543 24.2065 18.9068C23.7206 19.2769 23.0384 19.0932 22.7309 18.5655C22.4234 18.0378 22.6094 17.367 23.0799 16.9776C23.7299 16.4398 24.2759 15.7829 24.6868 15.0387C25.2768 13.9704 25.5663 12.7622 25.5247 11.5425C25.483 10.3228 25.1118 9.13722 24.4504 8.11162C23.9896 7.3972 23.4001 6.77901 22.715 6.28676C22.219 5.93036 21.9877 5.27385 22.2585 4.72638Z" fill="#AB9B9B"/>
</svg>
